<svg width="80" height="80" viewBox="0 0 80 80" fill="none" xmlns="http://www.w3.org/2000/svg">
<path d="M40.0004 0.000488281L40.0081 39.9611L55.3078 3.04529L40.0226 39.9673L68.2846 11.7162L40.0336 39.9782L76.9555 24.6931L40.0397 39.9927L80.0004 40.0005L40.0397 40.0082L76.9555 55.3079L40.0336 40.0227L68.2846 68.2847L40.0226 40.0337L55.3078 76.9557L40.0081 40.0398L40.0004 80.0005L39.9926 40.0398L24.6929 76.9557L39.9781 40.0337L11.7161 68.2847L39.9671 40.0227L3.04517 55.3079L39.961 40.0082L0.000366211 40.0005L39.961 39.9927L3.04517 24.6931L39.9671 39.9782L11.7161 11.7162L39.9781 39.9673L24.6929 3.04529L39.9926 39.9611L40.0004 0.000488281Z" fill="#C8FEC7" stroke="#C8FEC7" stroke-width="4"/>
</svg>
